<svg id="visual" viewBox="0 0 900 900" width="900" height="900" xmlns="http://www.w3.org/2000/svg" xmlns:xlink="http://www.w3.org/1999/xlink" version="1.1"><rect x="0" y="0" width="900" height="900" fill="#ffc629"></rect><g transform="translate(448.69856812840965 471.05506756935927)"><path d="M186.6 -313.2C234 -259.8 259.4 -194.9 292.9 -131C326.4 -67 368.1 -4.1 364.4 55.5C360.6 115 311.4 171.1 262.4 226.9C213.3 282.6 164.4 338 105.7 351.1C47 364.3 -21.4 335.2 -96.7 318.2C-172 301.2 -254.2 296.3 -303 254.5C-351.9 212.6 -367.5 133.9 -360.4 62.9C-353.3 -8 -323.6 -71.1 -285.1 -119.7C-246.6 -168.3 -199.3 -202.5 -150.3 -255.1C-101.4 -307.7 -50.7 -378.9 9.4 -393.6C69.6 -408.2 139.1 -366.5 186.6 -313.2" fill="#f6a700"></path></g></svg>